HIERARCHY
ROOT root
{
	OFFSET 0.000000 0.000000 0.000000
	CHANNELS 6 Xposition Yposition Zposition Zrotation Yrotation Xrotation
	JOINT lhip
	{
		OFFSET 0.058581 -0.082280 -0.017664
		CHANNELS 3 Zrotation Yrotation Xrotation
		JOINT lknee
		{
			OFFSET 0.043451 -0.386469 0.008037
			CHANNELS 3 Zrotation Yrotation Xrotation
			JOINT lankle
			{
				OFFSET -0.014790 -0.426874 -0.037428
				CHANNELS 3 Zrotation Yrotation Xrotation
				JOINT ltoe
				{
					OFFSET 0.041054 -0.060286 0.122042
					CHANNELS 3 Zrotation Yrotation Xrotation
					End Site
					{
						OFFSET 0.000000 0.000000 0.000000
					}
				}
			}
		}
	}
	JOINT rhip
	{
		OFFSET -0.060310 -0.090513 -0.013543
		CHANNELS 3 Zrotation Yrotation Xrotation
		JOINT rknee
		{
			OFFSET -0.043257 -0.383688 -0.004843
			CHANNELS 3 Zrotation Yrotation Xrotation
			JOINT rankle
			{
				OFFSET 0.019056 -0.420046 -0.034562
				CHANNELS 3 Zrotation Yrotation Xrotation
				JOINT rtoe
				{
					OFFSET -0.034840 -0.062106 0.130323
					CHANNELS 3 Zrotation Yrotation Xrotation
					End Site
					{
						OFFSET 0.000000 0.000000 0.000000
					}
				}
			}
		}
	}
	JOINT lowerback
	{
		OFFSET 0.004439 0.124404 -0.038385
		CHANNELS 3 Zrotation Yrotation Xrotation
		JOINT upperback
		{
			OFFSET 0.004488 0.137956 0.026820
			CHANNELS 3 Zrotation Yrotation Xrotation
			JOINT chest
			{
				OFFSET -0.002265 0.056032 0.002855
				CHANNELS 3 Zrotation Yrotation Xrotation
				JOINT lowerneck
				{
					OFFSET -0.013390 0.211636 -0.033468
					CHANNELS 3 Zrotation Yrotation Xrotation
					JOINT upperneck
					{
						OFFSET 0.010113 0.088937 0.050410
						CHANNELS 3 Zrotation Yrotation Xrotation
						End Site
						{
							OFFSET 0.000000 0.000000 0.000000
						}
					}
				}
				JOINT lclavicle
				{
					OFFSET 0.071702 0.114000 -0.018898
					CHANNELS 3 Zrotation Yrotation Xrotation
					JOINT lshoulder
					{
						OFFSET 0.122921 0.045205 -0.019046
						CHANNELS 3 Zrotation Yrotation Xrotation
						JOINT lelbow
						{
							OFFSET 0.255332 -0.015649 -0.022946
							CHANNELS 3 Zrotation Yrotation Xrotation
							JOINT lwrist
							{
								OFFSET 0.265709 0.012698 -0.007375
								CHANNELS 3 Zrotation Yrotation Xrotation
								End Site
								{
									OFFSET 0.000000 0.000000 0.000000
								}
							}
						}
					}
				}
				JOINT rclavicle
				{
					OFFSET -0.082954 0.112472 -0.023707
					CHANNELS 3 Zrotation Yrotation Xrotation
					JOINT rshoulder
					{
						OFFSET -0.113228 0.046853 -0.008472
						CHANNELS 3 Zrotation Yrotation Xrotation
						JOINT relbow
						{
							OFFSET -0.260127 -0.014369 -0.031269
							CHANNELS 3 Zrotation Yrotation Xrotation
							JOINT rwrist
							{
								OFFSET -0.269108 0.006794 -0.006027
								CHANNELS 3 Zrotation Yrotation Xrotation
								End Site
								{
									OFFSET 0.000000 0.000000 0.000000
								}
							}
						}
					}
				}
			}
		}
	}
}
MOTION
Frames: 8
Frame Time: 0.033333
1.165405 1.045074 0.982959 -76.705006 -13.721427 76.129885 23.697072 -2.111289 -25.800492 -7.778231 -7.219096 35.088575 -8.899918 2.024273 -0.685357 0.000000 -0.000000 0.000000 -18.793161 -4.786691 7.749883 -0.062174 6.132429 27.604034 -1.393191 -8.449743 -28.791122 0.000000 -0.000000 0.000000 -0.889358 7.988403 10.643934 0.169286 -0.570576 10.788595 -2.065117 1.150467 3.756970 3.886071 12.531139 11.193774 0.246194 6.805191 20.203741 -24.770853 8.358342 3.184421 -60.173357 0.794967 2.905493 9.457517 -28.420700 9.589535 1.026420 -4.072504 -13.701508 24.123551 -0.672502 4.479763 53.596102 6.617967 5.407791 -13.318831 28.664734 -3.105057 4.184656 1.950272 -4.479229 
1.158398 1.029548 0.979593 -76.985999 -13.794054 76.241222 23.866937 -1.833464 -24.282674 -7.442364 -8.643803 31.012564 -10.584028 1.432255 1.443925 0.000000 -0.000000 0.000000 -19.789507 -4.732830 7.733925 -0.321981 6.408266 28.605021 -1.073817 -8.247540 -29.684471 0.000000 -0.000000 0.000000 -0.414045 7.475472 10.520271 -0.031101 -0.505740 11.115672 -2.303109 1.098196 3.319945 3.753412 12.628650 11.935325 0.086313 6.993902 19.956624 -24.907018 8.419636 3.229113 -59.523875 1.156685 2.714102 9.306984 -28.811822 9.586871 0.710999 -4.533204 -13.499846 24.123787 -0.383798 4.662289 52.970010 6.661341 5.163115 -12.787830 29.133491 -3.106067 3.710564 2.021949 -3.653774 
1.150836 1.012651 0.975147 -76.999461 -13.741961 76.438714 23.846208 -1.478968 -23.345941 -7.376016 -9.541000 27.927700 -11.912532 0.249348 2.483501 0.000000 -0.000000 0.000000 -20.958887 -4.825110 8.100218 -0.578566 6.347269 28.950981 -0.610928 -7.825356 -30.438075 0.000000 -0.000000 0.000000 -0.024639 7.121155 10.039974 -0.132639 -0.688297 11.753885 -2.509618 1.170722 3.127217 3.778795 13.006038 12.483855 -0.121007 7.196180 19.953428 -24.792531 8.286202 3.076584 -59.119629 1.370377 2.839195 8.903832 -29.127860 9.660113 1.304143 -4.602085 -12.655022 24.075966 -0.278829 4.628351 52.422472 6.772267 4.996429 -12.254452 29.841798 -3.290784 3.728230 2.267958 -3.200921 
1.144519 0.994100 0.970878 -76.868301 -13.582079 76.393583 23.485567 -1.377362 -22.603396 -7.425906 -9.979871 25.961723 -12.903198 -0.662233 2.764976 0.000000 -0.000000 0.000000 -22.133352 -4.695307 8.698082 -0.595555 6.459482 29.231331 -0.048875 -7.701615 -31.111308 0.000000 -0.000000 0.000000 0.454937 6.848434 9.969647 -0.165214 -0.956142 13.413229 -2.744779 1.260343 2.545401 3.780102 12.658943 11.389826 -0.664197 6.334999 19.816535 -24.876719 7.995359 2.156115 -58.672510 1.241417 3.193413 8.976056 -28.995635 9.265146 1.122297 -4.640803 -12.498834 24.062177 0.173411 3.810259 51.838991 6.926451 5.314872 -12.420470 30.200277 -4.091505 3.555705 2.473296 -2.354194 
1.136950 0.974573 0.965283 -76.473827 -13.176035 77.127799 23.076710 -0.907166 -23.400156 -8.275182 -10.640789 25.818673 -14.125946 -2.094463 3.284209 0.000000 -0.000000 0.000000 -23.028338 -5.159599 8.689443 -0.979456 6.376749 29.422960 0.544720 -7.268083 -31.565363 0.000000 -0.000000 0.000000 0.772595 6.773569 10.273833 -0.113461 -1.105664 11.897646 -2.687924 1.080638 3.218297 3.651733 12.549618 11.650219 -0.457746 6.538259 19.715502 -24.933968 7.932144 2.270991 -58.003390 0.997307 3.057181 8.622352 -29.054193 9.075750 1.133450 -4.830430 -12.919180 24.090989 0.088713 3.912771 51.350174 7.196991 5.209487 -12.326301 30.595005 -4.307922 3.027266 2.451446 -2.211335 
1.130602 0.953680 0.959580 -76.016108 -12.575589 77.921889 22.630311 -1.392227 -24.775151 -9.357800 -10.935951 27.269148 -15.634556 -3.331966 3.645923 0.000000 -0.000000 0.000000 -23.508683 -5.044163 8.820154 -1.490208 5.905877 29.244345 1.052046 -7.348653 -31.755473 0.000000 -0.000000 0.000000 1.054117 7.027002 10.719140 0.100434 -1.507382 11.485583 -2.555430 1.044914 3.041678 3.744266 11.407235 11.720390 -0.310752 5.482591 19.384762 -24.963101 7.128893 2.583173 -57.526855 0.840107 3.180744 8.743585 -29.315457 8.151555 1.093479 -4.994867 -12.855544 24.168998 0.399158 3.831707 50.719011 7.083160 4.890225 -12.367574 31.428924 -4.648238 2.293601 2.334963 -1.839946 
1.123278 0.931860 0.953010 -75.703105 -11.720362 78.890563 22.062800 -1.560421 -26.407446 -10.616576 -11.502561 29.937902 -16.794091 -4.535119 4.228657 0.000000 -0.000000 0.000000 -23.854314 -5.208655 8.969741 -1.888897 5.909578 28.718100 1.618300 -7.449142 -31.752225 0.000000 -0.000000 0.000000 1.229957 7.145451 10.936156 0.307448 -1.646452 11.334700 -2.513595 1.092437 3.296912 3.856889 10.480055 10.878915 -0.264088 4.743003 18.835598 -24.893930 6.982196 2.092006 -56.548719 0.440476 3.529139 8.199657 -30.443172 8.179166 0.988225 -5.240130 -12.733276 24.154863 0.826767 3.475802 50.542730 7.546331 5.192153 -12.584897 31.248941 -5.592249 2.916620 2.399631 -2.260790 
1.115767 0.908320 0.945658 -76.049343 -10.771603 80.469121 21.634379 -1.473488 -28.553016 -10.948437 -9.500419 34.138915 -13.677999 -3.428232 -4.920487 0.000000 -0.000000 0.000000 -24.221398 -5.193576 8.405392 -2.025065 6.208068 28.393831 2.978842 -7.396509 -32.048116 0.000000 -0.000000 0.000000 1.279321 7.409484 10.928862 0.393416 -1.505857 10.670636 -2.477053 1.338630 3.642857 3.853876 10.225405 10.250928 -0.267923 5.063387 18.694540 -24.488973 6.541900 2.127797 -55.703929 -0.043028 3.053202 7.544869 -31.129743 8.310669 0.129087 -5.305522 -12.883729 24.209381 1.237677 3.344673 50.659382 7.937314 5.522099 -13.417313 31.310807 -6.551541 4.233875 1.791946 -2.021372 
